# xmcd
#
# Track frame offsets:
#	150
#	12530
#	33581
#	45346
#	61359
#	80234
#	89846
#	99888
#	122716
#	135625
#	152345
#	167848
#	178899
#	194086
#	217225
#	229111
#	237144
#	249554
#	262855
#	274108
#
# Disc length: 3878 seconds
#
# Revision: 0
# Processed by: cddbd v1.5.2PL0 Copyright (c) Steve Scherf et al.
# Submitted via: audiograbber 1.83.01
#
DISCID=1f0f2414
DTITLE=Various Artist - Merry Xmas! CD4
DYEAR=1900
DGENRE=
TTITLE0=Andy Williams - It's The Most Wonderful Time Of The Year
TTITLE1=Cliff Richard - The Millennium Prayer
TTITLE2=Frank Sinatra - Let It Snow! Let It Snow! Let It Snow!
TTITLE3=Greg Lake - I Believe In Father Christmas
TTITLE4=David Essex - A Winter's Tale
TTITLE5=Robson and Jerome - I Believe
TTITLE6=Tony Bennett - Winter Wonderland
TTITLE7=Chris De Burgh - A Spaceman Came Travelling
TTITLE8=Glenn Miller - When You Wish Upon a Star
TTITLE9=Johnny Mathis - When A Child Is Born
TTITLE10=Eartha Kitt - Santa Baby
TTITLE11=Doris Day - I'll Be Home For Christmas
TTITLE12=Vera Lynn w Mantovani and His Orchestra - White Christmas
TTITLE13=The Edwin Hawkins Singers - Oh Happy Day
TTITLE14=Winchester Cathedral Choir - We Three Kings
TTITLE15=The Choir of Trinity College, Cambridge - Ding! Dong! Merrily On High
TTITLE16=The Choir of Trinity College, Cambridge - O Come All Ye Faithful
TTITLE17=The Choir of Trinity College, Cambridge - Hark The Herald Angels Sing
TTITLE18=The Choir of Trinity College, Cambridge - O Little Town Of Bethlehem
TTITLE19=Gay Gordon - Auld Lang Syne
EXTD=(p)2010 Sony Music - Universal Music TV
EXTT0=
EXTT1=
EXTT2=
EXTT3=
EXTT4=
EXTT5=
EXTT6=
EXTT7=
EXTT8=
EXTT9=
EXTT10=
EXTT11=
EXTT12=
EXTT13=
EXTT14=
EXTT15=
EXTT16=
EXTT17=
EXTT18=
EXTT19=
PLAYORDER=
